<?xml version="1.0" encoding="UTF-8" standalone="no"?>
<!-- Created with Inkscape (http://www.inkscape.org/) -->

<svg
   xmlns:dc="http://purl.org/dc/elements/1.1/"
   xmlns:cc="http://creativecommons.org/ns#"
   xmlns:rdf="http://www.w3.org/1999/02/22-rdf-syntax-ns#"
   xmlns:svg="http://www.w3.org/2000/svg"
   xmlns="http://www.w3.org/2000/svg"
   xmlns:sodipodi="http://sodipodi.sourceforge.net/DTD/sodipodi-0.dtd"
   xmlns:inkscape="http://www.inkscape.org/namespaces/inkscape"
   version="1.1"
   id="svg3713"
   xml:space="preserve"
   width="502.66666"
   height="333.33334"
   viewBox="0 0 502.66666 333.33334"
   sodipodi:docname="DevSpace_Vector.svg"
   inkscape:version="0.92.3 (2405546, 2018-03-11)"><metadata
     id="metadata3719"><rdf:RDF><cc:Work
         rdf:about=""><dc:format>image/svg+xml</dc:format><dc:type
           rdf:resource="http://purl.org/dc/dcmitype/StillImage" /><dc:title></dc:title></cc:Work></rdf:RDF></metadata><defs
     id="defs3717" /><sodipodi:namedview
     pagecolor="#ffffff"
     bordercolor="#666666"
     borderopacity="1"
     objecttolerance="10"
     gridtolerance="10"
     guidetolerance="10"
     inkscape:pageopacity="0"
     inkscape:pageshadow="2"
     inkscape:window-width="3840"
     inkscape:window-height="2050"
     id="namedview3715"
     showgrid="false"
     inkscape:zoom="5.3999998"
     inkscape:cx="215.87036"
     inkscape:cy="159.25926"
     inkscape:window-x="-12"
     inkscape:window-y="-12"
     inkscape:window-maximized="1"
     inkscape:current-layer="g3743" /><g
     id="g3721"
     inkscape:groupmode="layer"
     inkscape:label="ink_ext_XXXXXX"
     transform="matrix(1.3333333,0,0,-1.3333333,0,333.33333)"><g
       id="g3723"
       transform="scale(0.1)"><path
         d="m 2953.95,1789.18 -27.54,16.09 -28.91,-13.63 6.8,31.21 -21.88,23.24 31.76,3.21 15.39,27.97 12.85,-29.22 31.33,-5.94 -23.79,-21.25 3.99,-31.68"
         style="fill:#3a4ba7;fill-opacity:1;fill-rule:nonzero;stroke:none"
         id="path3725"
         inkscape:connector-curvature="0" /><path
         d="m 3123.24,1886.56 -533.67,6.17 c 0,0 8.59,-2.5 8.59,-9.88 0,-7.38 7.43,-18.48 12.35,-17.26 0,0 -45.59,-427.7 -60.39,-575.59 -14.81,-147.89 -13.56,-203.36 -7.42,-342.66 6.17,-139.25 6.17,-178.078 6.17,-178.078 0,0 6.79,7.379 12.97,4.289 6.13,-3.082 4.92,-8 4.92,-8 0,0 5.54,4.289 9.84,3.078 4.34,-1.25 9.26,-4.918 11.72,-4.918 2.46,0 6.17,-1.871 4.34,-4.922 -1.88,-3.09 -3.71,-10.508 -0.67,-8.629 3.13,1.828 17.27,4.918 16.68,11.68 -0.62,6.789 0,32.07 1.84,32.648 1.83,0.633 1.83,8.633 3.71,9.883 1.83,1.25 -4.34,2.469 -1.88,8.008 2.46,5.551 3.09,3.09 6.18,6.801 3.08,3.672 -0.63,12.3 0.62,15.39 1.21,3.09 5.55,4.34 5.55,4.34 0,0 -1.88,2.461 1.21,2.461 3.08,0 1.25,4.918 0,9.219 -1.21,4.332 -4.92,4.332 -1.21,10.461 3.67,6.179 7.38,7.429 8.63,3.09 1.21,-4.301 -4.34,-4.922 -4.34,-8.012 0,-3.078 4.97,-1.207 6.18,-4.289 1.25,-3.09 -7.39,-4.301 -4.93,-8.012 2.47,-3.707 6.18,-4.34 11.72,-6.168 5.55,-1.84 5.55,-5.551 6.14,-14.808 0.62,-9.223 2.46,-4.301 3.71,-13.551 1.25,-9.223 -8.01,-9.223 -8.01,-16.641 0,-7.39 6.17,-0.629 8.01,-6.762 1.83,-6.168 2.46,-10.507 3.71,-12.347 1.21,-1.832 7.38,-5.539 14.76,-8.629 7.43,-3.082 7.43,-11.684 9.89,-16.641 2.46,-4.922 1.21,-9.222 -4.34,-9.222 -5.55,0 -14.14,-4.329 -19.73,-4.329 -5.54,0 -8,5.54 -11.68,5.54 -3.71,0 -4.33,-6.168 -12.34,-8 -8.01,-1.84 16.64,-6.758 25.9,-4.301 9.22,2.461 22.19,6.133 34.49,7.383 12.34,1.25 22.81,7.378 27.74,10.468 4.92,3.09 8,1.25 11.71,3.711 3.72,2.457 -5.54,6.168 -1.25,8.629 4.34,2.461 4.34,0.629 12.97,3.68 8.64,3.082 0.63,14.801 5.55,16.68 4.92,1.832 6.76,-0.629 8.01,3.039 1.21,3.711 -10.47,11.101 -11.1,16.64 -0.62,5.551 1.84,12.352 6.76,19.731 4.92,7.379 3.71,9.261 3.71,16.64 0,7.379 -13.55,9.258 -21.56,15.43 -8.01,6.129 -5.55,9.219 -9.26,16.02 -3.67,6.75 -14.18,3.082 -17.85,19.679 -3.71,16.641 4.3,13.602 7.38,20.352 3.09,6.801 -0.62,13.558 -0.62,13.558 l 534.76,-1.371 c 0,0 -1.36,9.692 -1.36,12.461 0,2.781 -5.55,5.551 -5.55,8.321 0,2.781 -4.65,11.101 -5.55,14.339 -0.93,3.243 -8.32,2.301 -8.32,5.082 0,2.77 2.31,12.028 1.84,14.797 -0.43,2.782 -6.02,6.024 -4.61,11.563 1.37,5.508 1.84,-2.77 6.48,8.75 4.61,11.569 -2.77,9.259 -2.77,13.439 0,4.14 4.14,7.85 5.08,12.46 0.9,4.61 -1.41,9.69 -0.47,13.4 0.94,3.71 5.08,6.49 6.48,12.5 1.37,6.02 -3.71,11.99 -3.71,17.54 0,5.55 -7.38,10.2 -7.38,12.97 0,2.73 -6.02,11.09 -5.12,21.25 0.94,10.16 -5.97,9.26 -5.54,12.03 0.47,2.77 2.81,5.98 3.24,9.69 0.47,3.71 -1.84,-2.31 -1.84,6.91 0,9.26 0,9.26 8.79,18.05 8.75,8.79 -0.94,2.77 5.08,10.62 6.02,7.86 3.67,10.2 5.08,13.4 1.4,3.24 -3.71,7.85 -3.24,11.1 0.46,3.24 2.77,3.71 3.71,5.54 0.93,1.88 -5.55,4.65 -4.61,9.73 0.9,5.08 3.67,6.44 14.29,11.99 10.67,5.55 1.41,7.85 4.18,8.79 2.78,0.94 4.14,-3.24 11.57,0 7.38,3.24 3.67,5.55 5.54,9.26 1.84,3.67 -7.85,8.79 -11.09,12.46 -3.24,3.71 -12.03,-3.67 -12.97,5.12 -0.9,8.75 5.12,7.85 6.02,11.99 0.93,4.18 4.64,11.09 4.64,13.87 0,2.77 -2.34,-1.84 -7.42,4.61 -5.08,6.48 0.47,2.34 0,12.03 -0.47,9.72 -12.03,18.47 -17.54,24.49 -5.54,6.01 1.37,3.71 0.43,6.48 -0.89,2.78 -3.67,2.78 -6.44,6.02 -2.78,3.2 5.08,0.9 4.14,2.77 -0.9,1.84 -6.02,6.45 -6.92,11.1 -0.93,4.61 4.15,5.54 4.15,6.91 0,1.41 -6.92,-2.3 -8.79,5.08 -1.84,7.42 6.01,3.71 4.64,6.48 -1.4,2.78 -8.32,0.47 -10.19,6.49 -1.84,5.97 6.48,2.77 6.02,5.5 -0.47,2.82 -5.55,0.47 -7.86,5.12 -2.3,4.61 -88.28,515.82 -88.28,515.82 z"
         style="fill:none;stroke:#231f20;stroke-width:20;stroke-linecap:butt;stroke-linejoin:miter;stroke-miterlimit:10;stroke-dasharray:none;stroke-opacity:1"
         id="path3727"
         inkscape:connector-curvature="0" /><path
         d="m 2935.9,1833.87 c 0,-2.23 -1.92,-4.03 -4.3,-4.03 -2.38,0 -4.33,1.8 -4.33,4.03 0,2.18 1.95,3.98 4.33,3.98 2.38,0 4.3,-1.8 4.3,-3.98 z"
         style="fill:none;stroke:#231f20;stroke-width:20;stroke-linecap:butt;stroke-linejoin:miter;stroke-miterlimit:10;stroke-dasharray:none;stroke-opacity:1"
         id="path3729"
         inkscape:connector-curvature="0" /><path
         d="m 2600.82,720.352 c -4.49,-1.481 -10.35,-2.582 -16.8,-3.872 -6.48,-1.281 -10.78,-2.609 -15.54,-3.902 -4.73,-1.289 3.43,-1.719 9.06,-0.859 5.62,0.859 18.55,4.761 24.14,2.152 5.62,-2.582 7.34,-0.82 6.05,1.75 -1.28,2.578 -3,6.02 -6.91,4.731 z"
         style="fill:none;stroke:#231f20;stroke-width:20;stroke-linecap:butt;stroke-linejoin:miter;stroke-miterlimit:10;stroke-dasharray:none;stroke-opacity:1"
         id="path3731"
         inkscape:connector-curvature="0" /><path
         d="m 2225.7,1771.25 c -175.86,-244.1 -236.17,-525.08 -117.97,-643.87 135.55,-136.29 443.32,-1.72 656.76,298.28 87.46,122.93 143.79,274.69 166.8,399.18 l 0.04,3.01 0.66,6.95 c -13.9,-71.52 -47.22,-211.25 -109.92,-314.96 -127.62,-232.22 -428.16,-457.54 -465.94,-292.14 -15.15,92.3 19.92,239.06 135.24,331.79 0,0 19.06,82.78 13.51,105.82 -5.54,23.09 -128.86,100.08 -163.32,111.21 -34.41,11.18 -115.86,-5.27 -115.86,-5.27"
         style="fill:#ffffff;fill-opacity:1;fill-rule:nonzero;stroke:none"
         id="path3733"
         inkscape:connector-curvature="0" /><path
         d="m 2225.7,1771.25 c -175.86,-244.1 -236.17,-525.08 -117.97,-643.87 135.55,-136.29 443.32,-1.72 656.76,298.28 87.46,122.93 143.79,274.69 166.8,399.18 l 0.04,3.01 0.66,6.95 c -13.9,-71.52 -47.22,-211.25 -109.92,-314.96 -127.62,-232.22 -428.16,-457.54 -465.94,-292.14 -15.15,92.3 19.92,239.06 135.24,331.79 0,0 19.06,82.78 13.51,105.82 -5.54,23.09 -128.86,100.08 -163.32,111.21 -34.41,11.18 -115.86,-5.27 -115.86,-5.27 z"
         style="fill:none;stroke:#231f20;stroke-width:20;stroke-linecap:butt;stroke-linejoin:miter;stroke-miterlimit:10;stroke-dasharray:none;stroke-opacity:1"
         id="path3735"
         inkscape:connector-curvature="0" /><path
         d="m 2403.55,1704.84 38.29,-35.82 38.55,-176.91 75,82.97 11.88,50.9 61.71,64.22 6.14,158.12 c 0,0 137.77,148.13 240.23,278.01 99.22,125.78 198.09,339.49 185.67,350.23 0,0 -1.29,1.88 -3.29,3.09 -14.06,8.24 -208.9,-116.21 -320.35,-234.14 -115.31,-122.03 -243.24,-282.07 -243.24,-282.07 l -164.8,-33.36 -55.75,-72.31 -52.18,-21.05 -73.17,-88.87 196.72,-2.85 45.27,-29.26 13.32,-10.9"
         style="fill:#fefefe;fill-opacity:1;fill-rule:nonzero;stroke:none"
         id="path3737"
         inkscape:connector-curvature="0" /><path
         d="m 2403.55,1704.84 38.29,-35.82 38.55,-176.91 75,82.97 11.88,50.9 61.71,64.22 6.14,158.12 c 0,0 137.77,148.13 240.23,278.01 99.22,125.78 198.09,339.49 185.67,350.23 0,0 -1.29,1.88 -3.29,3.09 -14.06,8.24 -208.9,-116.21 -320.35,-234.14 -115.31,-122.03 -243.24,-282.07 -243.24,-282.07 l -164.8,-33.36 -55.75,-72.31 -52.18,-21.05 -73.17,-88.87 196.72,-2.85 45.27,-29.26 z"
         style="fill:none;stroke:#324da7;stroke-width:40;stroke-linecap:butt;stroke-linejoin:miter;stroke-miterlimit:10;stroke-dasharray:none;stroke-opacity:1"
         id="path3739"
         inkscape:connector-curvature="0" /><path
         d="m 3724.49,1553.4 c -52.93,112.15 -159.61,200.97 -306.33,265.35 107.11,-57.77 216.68,-141.76 256.45,-233.79 C 3866.56,1140.86 3273.48,665.23 2400.39,390.082 1527.3,114.922 670,208.52 485.551,599.18 c -184.5,390.621 373.75,930.39 1246.829,1205.59 55.86,17.57 111.68,33.67 167.27,48.28 -127.31,-27.78 -256.64,-62 -386.41,-102.89 C 494.84,1429.18 -166.289,820.699 36.6016,391.09 239.449,-38.5508 1229.49,-126.641 2247.89,194.34 3266.25,515.309 3927.38,1123.79 3724.49,1553.4"
         style="fill:#3a4ba7;fill-opacity:1;fill-rule:nonzero;stroke:none"
         id="path3741"
         inkscape:connector-curvature="0" /><g
         id="g3743"
         transform="scale(10)"><text
           transform="matrix(1,0,0,-1,57.891,66.627)"
           style="font-variant:normal;font-size:39.72330093px;font-family:'Berlin Sans FB';-inkscape-font-specification:BerlinSansFB-Reg;writing-mode:lr-tb;fill:#231f20;fill-opacity:1;fill-rule:nonzero;stroke:none"
           id="text3747"><tspan
             x="0 27.011845 48.38298 72.971703 91.522484 116.30982 142.48747 166.0434"
             y="0"
             sodipodi:role="line"
             id="tspan3745">DEVSPACE</tspan></text>
</g></g></g></svg>