<?xml version="1.0" standalone="yes"?>
<svg xmlns="http://www.w3.org/2000/svg" width="311" height="260" fill="currentColor">
<path fill-rule="evenodd" style="stroke:none;" d="M89 40C65.0475 36.9729 31.6263 56.6707 40 85C25.5963 89.7774 13.7459 108.768 15.1157 123.985C15.6162 129.545 19.8809 135.162 19.75 140.576C19.6115 146.305 14.9244 152.09 14.2238 158.09C12.628 171.755 23.4753 189.896 37 193C26.103 210.769 38.7592 236.256 57 243.455C65.183 246.685 74.5557 244.23 82 247.077C95.2288 252.137 121.162 265.051 129 243C150.055 255.886 160.97 252.303 181 240C184.167 255.576 209.331 256.825 221 251.481C225.765 249.3 229.117 244.881 234 243.029C240.498 240.563 246.267 239.758 251.999 235.319C260.65 228.622 261.304 220.368 266.988 212.302C271.567 205.805 282.153 203.332 287.51 195.999C295.371 185.239 300.458 168.425 298.78 155.039C297.844 147.568 293.687 139.248 294 132C288.127 126.084 298.378 114.433 299.633 106.83C302.602 88.8553 287.972 73.5341 272 69C274.98 50.4716 253.872 33.6974 238 29.8989C232.684 28.6265 225.816 30.9071 221 28.8866C208.469 23.6292 202.154 13.8266 187 14.0185C177.043 14.1447 168.653 22.9659 160 23.0772C154.24 23.1512 146.924 14.8693 141 13.0401C122.079 7.19786 91.9655 17.7032 89 40z
            M159 114C155.41 126.647 147.266 138.717 133 140C140.522 156.924 137.932 182.672 119 191C123.151 201.78 118.503 210.61 123.309 221C126.974 228.92 131.381 237.184 139.004 241.881C152.981 250.494 172.837 245.078 179.648 230C183.296 221.926 186.35 210.892 186.35 202C186.35 198.221 184.701 194.863 185.333 191C186.121 186.176 190.866 181.83 190.578 177C190.001 167.335 183.081 163.752 187 153C169.133 150.212 162.648 131.486 167 116L159 114z"/>
</svg>